# xmcd
# 
# Track frame offsets:
#     150
#     23510
#     43340
#     63485
#     83200
#     101930
#     125692
#     146290
#     167167
#     183190
#     199575
#     226447
# 
# Disc length: 3221
# 
# Revision: 21
# Processed by: cddbd v1.5.2PL0 Copyright (c) Steve Scherf et al.
# Submitted via: fre:ac v1.1beta1pre5
# 
DISCID=a30c930c
DTITLE=Queen - A Kind of Magic (Japan)
DYEAR=1986
DGENRE=Rock
TTITLE0=One Vision
TTITLE1=A Kind of Magic
TTITLE2=One Year of Love
TTITLE3=Pain is so Close to Pleasure
TTITLE4=Friends Will Be Friends
TTITLE5=Who Wants to Live Forever
TTITLE6=Gimme the Prize (Kurgan's Theme)
TTITLE7=Don't Lose Your Head
TTITLE8=Princes of the Universe
TTITLE9=A Kind of 'A Kind of Magic'
TTITLE10=Friends Will Be Friends Will Be Friends ...
TTITLE11=Forever (Piano Version)
EXTD=
EXTT0=
EXTT1=
EXTT2=
EXTT3=
EXTT4=
EXTT5=
EXTT6=
EXTT7=
EXTT8=
EXTT9=
EXTT10=
EXTT11=
PLAYORDER=
